<svg xmlns="http://www.w3.org/2000/svg" width="696.701" height="263.044" viewBox="0 0 696.701 263.044">
  <path id="Path_9" data-name="Path 9" d="M169.084,124.843c13.656-5.214,35.133-9.532,57.687-9.532S327.4,134.386,336.506,140.892s16.916,30.795,35.133,37.735,50.313-.434,86.313,0,55.084,9.542,60.723,20.385-2.169,31.663-1.735,45.976,6.94,16.916,23.855,16.048,61.591-22.988,83.711-31.663,37.735-11.71,61.157-8.24,75.9,8.963,89.2,9.831,27.47,14.467,27.47,30.221S789.9,290.83,787.88,300.367s6.939,17.344,14.457,22.549,11.856,19.084,5.205,23.711-24.653,14.327-53.205,7.228c-26.168-6.506-72.867-46.843-81.542-48s-12.434-1.156-21.108,10.7-20.241,38.551-56.386,38.215-50.313-4.673-57.831-13.058-8.1-24-21.976-25.735-17.082,11.482-32.1,26.891c-10.988,11.278-7.518,14.169-47.13,29.2-38.885,14.761-65.881.027-77.208-8.674-13.731-10.549-38.465-39.082-43.373-53.784-5.712-17.105-11.928-28.843-24.723-43.373s-39.47-14.218-61.807-11.88-41.856,4.506-51.832-5.9-19.518-39.036-22.771-49.012-24.036-19.952-33.831-27.326-6.94-21.686-2.6-26.457S151.079,131.719,169.084,124.843Z" transform="translate(-114.122 -115.311)" fill="#88be43"/>
</svg>
