<svg xmlns="http://www.w3.org/2000/svg" width="566.194" height="245.061" viewBox="0 0 566.194 245.061">
  <path id="Path_10" data-name="Path 10" d="M420.945,190.771c41.194,10.005,44.38-1.3,66.5-6.506s33.831-10.41,52.048,0,26.024,42.94,63.759,50.747,61.157,31.883,74.169,51.4,5.205,61.156-19.518,67.662-53.35-27.979-80.675-40.991-110.6-24.723-149.639-14.313-59.855,35.133-80.674,48.145-57.253,7.807-76.771-11.711c0,0-14.314-37.735-46.844-54.651s-70.265,3.752-93.687-14.389-10.409-75.394,16.916-75.394,50.747,19.518,89.783,6.506,36.434-78.072,66.362-84.578,48.144-2.6,67.662,18.217S407.1,187.409,420.945,190.771Z" transform="translate(-117.452 -109.823)" fill="#88be43"/>
</svg>
